<svg version="1.1" xmlns="http://www.w3.org/2000/svg" xmlns:xlink="http://www.w3.org/1999/xlink" width="800px" height="800px" viewBox="0,0,256,256"><g fill="#4bbbee" fill-rule="nonzero" stroke="none" stroke-width="1" stroke-linecap="butt" stroke-linejoin="miter" stroke-miterlimit="10" stroke-dasharray="" stroke-dashoffset="0" font-family="none" font-weight="none" font-size="none" text-anchor="none" style="mix-blend-mode: normal"><g transform="scale(8,8)"><path d="M25.042,16.87c-3.844,0 -6.964,3.115 -6.964,6.958c0,3.849 3.12,6.964 6.964,6.964c3.839,0 6.958,-3.12 6.958,-6.964c0,-3.839 -3.115,-6.958 -6.958,-6.958zM6.958,16.87c-3.839,0 -6.958,3.115 -6.958,6.958c0,3.849 3.12,6.964 6.958,6.964c3.844,0 6.964,-3.12 6.964,-6.964c0,-3.839 -3.115,-6.958 -6.964,-6.958zM22.958,8.172c0,3.844 -3.115,6.958 -6.958,6.958c-3.843,0 -6.958,-3.115 -6.958,-6.958c0,-3.844 3.115,-6.964 6.958,-6.964c3.843,0 6.958,3.12 6.958,6.964z"></path></g></g></svg>